<svg viewBox="0 0 800 800" xmlns="http://www.w3.org/2000/svg"><path d="M418.98659351090487,396.7753875940679 L419.02776351056656,384.2391226970928 M371.525707129645,412.5256817471409 L371.46114862057715,399.74309695170126 M418.98659351090487,396.7753875940679 L371.525707129645,412.5256817471409 M419.02776351056656,384.2391226970928 L371.46114862057715,399.74309695170126 M421.96414326718667,397.74632773198584 L418.98659351090487,396.7753875940679 M422.0119234274756,385.19483404303105 L419.02776351056656,384.2391226970928 M421.96414326718667,397.74632773198584 L422.0119234274756,385.19483404303105 M381.01561409322625,415.7608773029072 L380.9721860355025,402.9278862455373 M371.525707129645,412.5256817471409 L381.01561409322625,415.7608773029072 M371.46114862057715,399.74309695170126 L380.9721860355025,402.9278862455373 M421.96414326718667,397.74632773198584 L418.17930153664605,398.08130169597865 M418.17930153664605,398.08130169597865 L424.50606972715207,400.14898850613736 M424.50606972715207,400.14898850613736 L425.4810081022582,398.89313148255275 M428.47655048137307,399.86993878009014 L425.4810081022582,398.89313148255275 M381.01561409322625,415.7608773029072 L428.47655048137307,399.86993878009014 M418.2187706681334,385.5245554269909 L422.0119234274756,385.19483404303105 M424.5596269874144,387.55983504549016 L418.2187706681334,385.5245554269909 M425.53661905661835,386.32365813341005 L424.5596269874144,387.55983504549016 M428.53885137942285,387.28515737404683 L425.53661905661835,386.32365813341005 M380.9721860355025,402.9278862455373 L428.53885137942285,387.28515737404683 M418.17930153664605,398.08130169597865 L418.2187706681334,385.5245554269909 M428.47655048137307,399.86993878009014 L428.53885137942285,387.28515737404683 M424.50606972715207,400.14898850613736 L424.5596269874144,387.55983504549016 M425.53661905661835,386.32365813341005 L425.4810081022582,398.89313148255275" stroke="black"  stroke-width="4"  fill="red"/></svg>